<?xml version="1.0" standalone="no"?><!DOCTYPE svg PUBLIC "-//W3C//DTD SVG 20010904//EN"
  "http://www.w3.org/TR/2001/REC-SVG-20010904/DTD/svg10.dtd"><svg version="1.0" xmlns="http://www.w3.org/2000/svg" width="700.000000pt" height="700.000000pt" viewBox="0 0 700.000000 700.000000" preserveAspectRatio="xMidYMid meet"><metadata>Created by potrace 1.14, written by Peter Selinger 2001-2017</metadata><g transform="translate(0.000000,700.000000) scale(0.100000,-0.100000)" fill="#000000" stroke="none"><path d="M4325 6947 c-36 -17 -54 -37 -158 -183 -43 -60 -151 -210 -240 -334
-205 -284 -222 -311 -248 -379 -26 -69 -31 -178 -13 -250 34 -132 142 -263
310 -377 135 -92 197 -125 644 -341 215 -104 368 -192 404 -231 15 -18 11 -33
-83 -283 -54 -145 -131 -349 -170 -454 -188 -506 -301 -809 -304 -812 -2 -1
-41 22 -87 52 -187 123 -452 223 -665 251 -27 3 -61 8 -75 10 -43 6 -273 5
-325 -1 -49 -6 -129 -18 -190 -30 -142 -26 -360 -113 -506 -201 -31 -19 -59
-34 -61 -34 -3 0 -35 41 -73 92 -181 242 -425 425 -710 533 -59 22 -194 60
-245 70 -8 1 -46 8 -83 15 -105 19 -463 16 -496 -5 -4 -2 -22 -6 -41 -9 -89
-14 -238 -62 -342 -110 -31 -14 -60 -26 -64 -26 -19 0 -73 -53 -89 -86 -17
-35 -18 -136 -18 -1845 0 -1748 1 -1808 19 -1845 41 -82 101 -100 224 -68 141
36 217 65 359 137 103 51 107 54 192 109 106 68 265 213 336 305 14 18 31 33
37 33 7 0 63 -23 126 -51 159 -71 482 -178 620 -205 14 -2 32 -7 40 -10 19 -7
194 -43 240 -50 19 -3 58 -9 85 -14 28 -5 75 -12 105 -15 30 -3 62 -8 70 -10
8 -2 47 -7 85 -10 39 -3 84 -8 100 -10 141 -18 636 -25 850 -11 118 8 139 9
260 21 166 16 553 78 655 105 19 5 46 11 60 13 88 16 413 109 530 153 36 13
69 24 73 24 19 0 325 128 452 189 202 97 282 146 301 184 32 60 164 514 190
647 3 14 12 54 20 90 8 36 24 112 35 170 12 58 22 112 24 121 2 9 6 40 10 70
4 30 8 56 10 60 5 6 37 247 50 364 12 113 19 197 30 380 6 88 6 577 1 670 -6
107 -21 284 -31 380 -8 70 -34 255 -40 285 -3 14 -7 43 -10 65 -2 22 -9 60
-14 85 -5 25 -16 83 -26 130 -9 47 -28 130 -42 185 -13 55 -26 107 -28 115 -5
24 -32 119 -53 190 -165 548 -433 1097 -751 1535 -92 127 -216 278 -241 293
-17 11 -77 24 -200 46 -53 9 -96 16 -125 21 -16 3 -55 9 -85 15 -30 5 -68 12
-85 14 -16 3 -70 12 -120 21 -49 9 -106 18 -125 21 -19 2 -57 9 -85 15 -89 18
-168 20 -200 6z m220 -322 c11 -2 36 -6 55 -9 19 -3 46 -8 60 -11 14 -3 68
-12 120 -21 52 -8 106 -17 120 -20 14 -2 79 -13 145 -24 135 -23 155 -30 178
-68 9 -15 29 -41 44 -59 15 -18 39 -48 53 -68 14 -20 40 -56 58 -80 49 -66
212 -325 205 -325 -3 0 1 -8 9 -17 54 -64 226 -419 323 -668 77 -198 126 -350
194 -610 71 -269 130 -624 156 -930 25 -295 25 -818 0 -1048 -3 -23 -7 -69
-10 -102 -9 -105 -18 -171 -45 -360 -7 -44 -14 -87 -15 -96 -2 -9 -6 -33 -9
-53 -3 -19 -10 -55 -15 -78 -5 -24 -12 -61 -16 -83 -3 -22 -13 -69 -21 -105
-9 -36 -17 -74 -20 -85 -13 -69 -62 -254 -105 -401 l-51 -170 -121 -61 c-184
-92 -410 -185 -607 -249 -139 -45 -393 -116 -465 -130 -11 -2 -74 -15 -140
-28 -66 -14 -133 -27 -150 -30 -16 -2 -50 -8 -75 -11 -25 -4 -53 -9 -62 -11
-9 -1 -41 -5 -70 -8 -29 -4 -69 -8 -89 -11 -303 -39 -772 -48 -1069 -20 -19 2
-73 7 -120 11 -47 4 -87 8 -90 9 -3 1 -30 5 -60 9 -449 63 -839 177 -1165 341
-186 95 -221 89 -324 -51 -111 -153 -272 -302 -404 -373 -145 -80 -228 -115
-236 -102 -3 5 -6 737 -6 1626 l0 1617 55 22 c143 58 314 86 495 81 255 -7
474 -79 700 -230 83 -55 251 -225 309 -312 l49 -72 -63 -69 c-95 -106 -169
-211 -176 -249 -18 -98 37 -176 132 -189 62 -7 111 25 176 113 130 177 293
316 484 412 380 190 817 194 1199 10 80 -38 212 -121 250 -156 68 -63 158
-133 173 -134 9 0 29 -3 44 -5 35 -6 102 28 124 62 17 25 105 256 370 974 75
201 139 374 144 385 5 11 47 119 92 240 77 204 83 225 82 295 0 90 -20 136
-97 218 -98 102 -218 171 -737 420 -389 186 -564 329 -546 443 7 42 25 70 311
468 l180 251 35 -6 c19 -3 44 -8 55 -9z"/></g></svg>